<svg width="1383" height="2772" viewBox="0 0 1383 2772" fill="none" xmlns="http://www.w3.org/2000/svg">
<g opacity="0.1">
<path d="M1152 272.924L1243.92 181L1250.99 188.071L1159.07 279.995L1152 272.924Z" fill="#84C6FF"/>
<path d="M1243.92 279.995L1152 188.071L1159.07 181L1250.99 272.924L1243.92 279.995Z" fill="#84C6FF"/>
</g>
<g opacity="0.1">
<path d="M1130 1232.92L1221.92 1141L1228.99 1148.07L1137.07 1239.99L1130 1232.92Z" fill="#84C6FF"/>
<path d="M1221.92 1239.99L1130 1148.07L1137.07 1141L1228.99 1232.92L1221.92 1239.99Z" fill="#84C6FF"/>
</g>
<g opacity="0.1">
<path d="M1139 2178.92L1230.92 2087L1237.99 2094.07L1146.07 2185.99L1139 2178.92Z" fill="#84C6FF"/>
<path d="M1230.92 2185.99L1139 2094.07L1146.07 2087L1237.99 2178.92L1230.92 2185.99Z" fill="#84C6FF"/>
</g>
<g opacity="0.1">
<path d="M591.999 2664.92L683.923 2573L690.994 2580.07L599.07 2671.99L591.999 2664.92Z" fill="#84C6FF"/>
<path d="M683.923 2671.99L591.999 2580.07L599.07 2573L690.994 2664.92L683.923 2671.99Z" fill="#84C6FF"/>
</g>
<g opacity="0.1">
<path d="M383.994 1811.92L475.918 1720L482.989 1727.07L391.065 1818.99L383.994 1811.92Z" fill="#84C6FF"/>
<path d="M475.918 1818.99L383.994 1727.07L391.065 1720L482.989 1811.92L475.918 1818.99Z" fill="#84C6FF"/>
</g>
<rect opacity="0.1" x="1138" y="771" width="90" height="90" stroke="#EBB6E0" stroke-width="10"/>
<rect opacity="0.1" x="1116" y="1731" width="90" height="90" stroke="#EBB6E0" stroke-width="10"/>
<rect opacity="0.1" x="1125" y="2677" width="90" height="90" stroke="#EBB6E0" stroke-width="10"/>
<path opacity="0.1" d="M1270.66 94.75L1319.59 10L1368.52 94.75H1270.66Z" stroke="#18C4D8" stroke-width="10"/>
<path opacity="0.1" d="M1248.66 1054.75L1297.59 970L1346.52 1054.75H1248.66Z" stroke="#18C4D8" stroke-width="10"/>
<path opacity="0.1" d="M1275.66 1509.75L1324.59 1425L1373.52 1509.75H1275.66Z" stroke="#18C4D8" stroke-width="10"/>
<circle opacity="0.1" cx="1083" cy="570" r="45" stroke="#F28E9A" stroke-width="10"/>
<circle opacity="0.1" cx="1070" cy="2476" r="45" stroke="#F28E9A" stroke-width="10"/>
<g opacity="0.1">
<path d="M61.0005 131.924L152.924 40L159.995 47.0711L68.0716 138.995L61.0005 131.924Z" fill="#84C6FF"/>
<path d="M152.924 138.995L61.0005 47.0711L68.0716 40L159.995 131.924L152.924 138.995Z" fill="#84C6FF"/>
</g>
<g opacity="0.1">
<path d="M53 862.924L144.924 771L151.995 778.071L60.0711 869.995L53 862.924Z" fill="#84C6FF"/>
<path d="M144.924 869.995L53 778.071L60.0711 771L151.995 862.924L144.924 869.995Z" fill="#84C6FF"/>
</g>
<g opacity="0.1">
<path d="M48.0005 2037.92L139.924 1946L146.995 1953.07L55.0716 2044.99L48.0005 2037.92Z" fill="#84C6FF"/>
<path d="M139.924 2044.99L48.0005 1953.07L55.0716 1946L146.995 2037.92L139.924 2044.99Z" fill="#84C6FF"/>
</g>
<rect opacity="0.1" x="324.994" y="2331" width="90" height="90" stroke="#EBB6E0" stroke-width="10"/>
<rect opacity="0.1" x="982.999" y="25" width="90" height="90" stroke="#EBB6E0" stroke-width="10"/>
<rect opacity="0.1" x="960.999" y="985" width="90" height="90" stroke="#EBB6E0" stroke-width="10"/>
<circle opacity="0.1" cx="881" cy="1670" r="45" stroke="#F28E9A" stroke-width="10"/>
<circle opacity="0.1" cx="504.994" cy="90" r="45" stroke="#F28E9A" stroke-width="10"/>
<circle opacity="0.1" cx="491.994" cy="1996" r="45" stroke="#F28E9A" stroke-width="10"/>
<path opacity="0.1" d="M8.66074 2760.75L57.5912 2676L106.522 2760.75H8.66074Z" stroke="#18C4D8" stroke-width="10"/>
<path opacity="0.1" d="M781.66 2180.75L830.59 2096L879.521 2180.75H781.66Z" stroke="#18C4D8" stroke-width="10"/>
<path opacity="0.1" d="M746.658 702.75L795.589 618L844.519 702.75H746.658Z" stroke="#18C4D8" stroke-width="10"/>
<path opacity="0.1" d="M240.654 1174.75L289.585 1090L338.515 1174.75H240.654Z" stroke="#18C4D8" stroke-width="10"/>
</svg>
