<svg width="171" height="39" viewBox="0 0 171 39" fill="none" xmlns="http://www.w3.org/2000/svg">
<path d="M26.2937 5.91058H29.4763V9.09325H26.2937V5.91058Z" fill="#2E3D59"/>
<path d="M23.8217 5.91058H25.5191V7.60801H23.8217V5.91058Z" fill="#2E3D59"/>
<path d="M19.1305 1.37846C19.3982 1.37846 19.6641 1.3824 19.9283 1.39028V5.91059H28.6781L23.111 5.91059V8.02089C21.8501 7.76827 20.5233 7.64196 19.1305 7.64196C16.4826 7.64196 14.3099 8.17665 12.6124 9.24602C10.915 10.2984 9.65892 11.7412 8.84416 13.5745C8.0294 15.3907 7.62202 17.4531 7.62202 19.7616C7.62202 22.1889 8.0294 24.3361 8.84416 26.2033C9.6759 28.0705 10.915 29.5387 12.5615 30.6081C14.208 31.6605 16.2619 32.1867 18.7232 32.1867C19.47 32.1867 20.2508 32.1358 21.0656 32.0339C21.8974 31.9321 22.7461 31.7963 23.6117 31.6266V25.2612H18.7232V19.8634H24.1719V20.763H26.2937V19.8634H30.1299V35.7513C28.8907 36.4812 27.2442 37.1177 25.1904 37.6609C23.1534 38.1871 20.9128 38.4502 18.4686 38.4502C14.7003 38.4502 11.4752 37.6864 8.79324 36.1587C6.11131 34.614 4.05743 32.4498 2.63159 29.666C1.20575 26.8823 0.492836 23.6147 0.492836 19.8634C0.492836 16.6185 1.09427 13.7357 2.29714 11.215H4.015V8.37266C5.46409 6.4254 7.27751 4.85784 9.45523 3.66999C12.256 2.1423 15.4811 1.37846 19.1305 1.37846Z" fill="#2E3D59"/>
<path d="M20.5649 2.72792H23.111V5.27406H20.5649V2.72792Z" fill="#2E3D59"/>
<path d="M2.93809 20.763H7.18165V25.0066H2.93809V20.763Z" fill="#3D5B95"/>
<path d="M1.7739 19.5989H2.93808V20.7631H1.7739V19.5989Z" fill="#727273"/>
<path d="M12.2605 6.17731H14.4076V8.35367H12.2605V6.17731Z" fill="#15606A"/>
<path d="M15.7464 5.01314H16.9106V6.17732H15.7464V5.01314Z" fill="#7B7B7C"/>
<path d="M26.2909 25.0066H28.3632V27.0789H26.2909V25.0066Z" fill="#7B7B7C"/>
<path d="M23.0116 34.6171H25.084V36.6894H23.0116V34.6171Z" fill="#7B7B7C"/>
<path d="M7.18164 8.02344H9.32877V10.1998H7.18164V8.02344Z" fill="#3D5B95"/>
<path d="M13.5993 2.91278H15.7464V5.08915H13.5993V2.91278Z" fill="#3D5B95"/>
<path d="M2.91273 17.2044H5.05986V19.3808H2.91273V17.2044Z" fill="#15606A"/>
<path d="M2.356 23.9184H4.50313V26.0948H2.356V23.9184Z" fill="#15606A"/>
<path d="M26.9941 31.3322H29.1413V33.5085H26.9941V31.3322Z" fill="#15606A"/>
<path d="M6.14016 9.80714H7.18104V10.8622H6.14016V9.80714Z" fill="#15606A"/>
<path d="M8.22931 33.4769H10.3764V35.6532H8.22931V33.4769Z" fill="#15606A"/>
<path d="M7.18164 27.1533H9.30287V29.2979H7.18164V27.1533Z" fill="#3D5B95"/>
<path d="M18.8038 19.9144H20.9251V22.059H18.8038V19.9144Z" fill="#3D5B95"/>
<path d="M13.5993 33.5086H15.7205V35.6532H13.5993V33.5086Z" fill="#3D5B95"/>
<path d="M24.1625 27.1412H26.2909V29.2979H24.1625V27.1412Z" fill="#3D5B95"/>
<path d="M10.3764 32.4204H11.5406V33.5846H10.3764V32.4204Z" fill="#7B7B7C"/>
<path d="M6.79275 10.8628H7.85302V11.9231H6.79275V10.8628Z" fill="#7B7B7C"/>
<path d="M30.5372 4.8497H32.659V6.97148H30.5372V4.8497Z" fill="#2E3D59"/>
<path fill-rule="evenodd" clip-rule="evenodd" d="M28.4268 0.60614H24.1833V4.8497H28.4268V0.60614ZM26.3162 3.18618C26.5603 3.18618 26.7582 2.98827 26.7582 2.74415C26.7582 2.50002 26.5603 2.30212 26.3162 2.30212C26.0721 2.30212 25.8742 2.50002 25.8742 2.74415C25.8742 2.98827 26.0721 3.18618 26.3162 3.18618ZM27.8896 1.59866C27.8896 1.84278 27.6917 2.04069 27.4475 2.04069C27.2034 2.04069 27.0055 1.84278 27.0055 1.59866C27.0055 1.35453 27.2034 1.15663 27.4475 1.15663C27.6917 1.15663 27.8896 1.35453 27.8896 1.59866ZM25.1621 4.29874C25.4062 4.29874 25.6041 4.10084 25.6041 3.85671C25.6041 3.61258 25.4062 3.41468 25.1621 3.41468C24.918 3.41468 24.7201 3.61258 24.7201 3.85671C24.7201 4.10084 24.918 4.29874 25.1621 4.29874ZM25.6041 1.59916C25.6041 1.35504 25.4062 1.15713 25.1621 1.15713C24.918 1.15713 24.7201 1.35504 24.7201 1.59916C24.7201 1.84329 24.918 2.04119 25.1621 2.04119C25.4062 2.04119 25.6041 1.84329 25.6041 1.59916ZM27.4475 3.41519C27.6917 3.41519 27.8896 3.61309 27.8896 3.85722C27.8896 4.10134 27.6917 4.29925 27.4475 4.29925C27.2034 4.29925 27.0055 4.10134 27.0055 3.85722C27.0055 3.61309 27.2034 3.41519 27.4475 3.41519Z" fill="#2E3D59"/>
<path fill-rule="evenodd" clip-rule="evenodd" d="M48.5724 17.5804H50.6942V19.7022H48.5724V17.5804ZM50.4293 19.2147C50.4293 19.0907 50.3299 18.9902 50.2072 18.9902C50.0846 18.9902 49.9852 19.0907 49.9852 19.2147C49.9852 19.3386 50.0846 19.4391 50.2072 19.4391C50.3299 19.4391 50.4293 19.3386 50.4293 19.2147ZM49.0591 17.8437C49.1817 17.8437 49.2811 17.9442 49.2811 18.0682C49.2811 18.1921 49.1817 18.2926 49.0591 18.2926C48.9364 18.2926 48.837 18.1921 48.837 18.0682C48.837 17.9442 48.9364 17.8437 49.0591 17.8437Z" fill="#2E3D59"/>
<path fill-rule="evenodd" clip-rule="evenodd" d="M48.5724 17.5804H50.6942V19.7022H48.5724V17.5804ZM50.4293 19.2147C50.4293 19.0907 50.3299 18.9902 50.2072 18.9902C50.0846 18.9902 49.9852 19.0907 49.9852 19.2147C49.9852 19.3386 50.0846 19.4391 50.2072 19.4391C50.3299 19.4391 50.4293 19.3386 50.4293 19.2147ZM49.0591 17.8437C49.1817 17.8437 49.2811 17.9442 49.2811 18.0681C49.2811 18.1921 49.1817 18.2926 49.0591 18.2926C48.9364 18.2926 48.837 18.1921 48.837 18.0681C48.837 17.9442 48.9364 17.8437 49.0591 17.8437Z" fill="#2E3D59"/>
<path fill-rule="evenodd" clip-rule="evenodd" d="M41.4644 38.1192C40.3059 38.1192 39.2938 37.8837 38.4282 37.4127C37.5625 36.9417 36.8877 36.2988 36.404 35.484C35.9329 34.6692 35.6974 33.7399 35.6974 32.696C35.6974 31.6393 35.9266 30.7354 36.3849 29.9843C36.8559 29.2205 37.4797 28.5903 38.2563 28.0938C39.0456 27.5846 39.924 27.1836 40.8915 26.8908C41.8591 26.5852 42.8584 26.3688 43.8896 26.2415C44.9335 26.1015 45.9329 26.0251 46.8877 26.0124C46.8877 24.2301 46.5376 23.0652 45.8374 22.5178C45.1372 21.9704 44.1251 21.6967 42.8011 21.6967C42.101 21.6967 41.3498 21.8049 40.5478 22.0213C39.7585 22.2377 38.8674 22.6897 37.8744 23.3771L37.3779 20.5891C38.129 20.0162 39.0647 19.5515 40.185 19.1951C41.3053 18.8259 42.4829 18.6413 43.7177 18.6413C45.2825 18.6413 46.5471 18.9165 47.5115 19.4669V20.7631H48.9187C49.215 21.1916 49.4609 21.6937 49.6566 22.2695C50.1022 23.5808 50.325 25.3631 50.325 27.6164V31.4356C50.325 32.3268 50.3632 33.0652 50.4395 33.6508C50.5287 34.2237 50.7196 34.6565 51.0124 34.9493C51.318 35.2294 51.8017 35.3694 52.4637 35.3694H52.8075L52.2728 38.1192H52.0054C50.8979 38.1192 50.0385 38.011 49.4275 37.7946C48.8291 37.5782 48.3708 37.2663 48.0525 36.8589C47.7343 36.4515 47.4478 35.955 47.1932 35.3694C46.493 36.1842 45.6655 36.8462 44.7107 37.3554C43.7559 37.8646 42.6738 38.1192 41.4644 38.1192ZM42.1137 35.3694C43.0303 35.3694 43.9151 35.1403 44.768 34.682C45.6337 34.2237 46.3403 33.6126 46.8877 32.8487V28.3803C45.0672 28.4439 43.5904 28.6222 42.4574 28.915C41.3371 29.2078 40.516 29.647 39.994 30.2326C39.4721 30.8182 39.2111 31.5757 39.2111 32.505C39.2111 33.5107 39.4784 34.2427 40.0131 34.7011C40.5605 35.1466 41.2607 35.3694 42.1137 35.3694Z" fill="#2E3D59"/>
<path d="M55.4606 19.0232H58.134L58.5163 21.0195C59.3409 20.2765 60.1492 19.732 60.9412 19.386C62.0487 18.8896 63.2136 18.6413 64.4357 18.6413C65.3523 18.6413 66.2308 18.7941 67.071 19.0996C67.9239 19.3924 68.6878 19.9144 69.3625 20.6655C69.7907 21.1254 70.1645 21.6988 70.484 22.3859C71.0213 21.3766 71.7359 20.5486 72.6279 19.9016C73.7864 19.0614 75.3459 18.6413 77.3064 18.6413C78.8723 18.6413 80.1899 18.9341 81.2593 19.5197C82.3287 20.0926 83.1307 20.9774 83.6654 22.1741C84.2128 23.358 84.4865 24.8666 84.4865 26.6998V37.7373H81.0493V26.738C81.0493 24.9812 80.7055 23.7017 80.0181 22.8997C79.3306 22.0977 78.2103 21.6967 76.6572 21.6967C75.5623 21.6967 74.6839 21.8685 74.0219 22.2123C73.3599 22.5433 72.8571 22.9761 72.5133 23.5108C72.1823 24.0455 71.9596 24.612 71.845 25.2103C71.7431 25.8087 71.6922 26.3688 71.6922 26.8908V37.7373H68.2549V27.4255C68.2549 25.8978 68.0703 24.7202 67.7012 23.8927C67.332 23.0652 66.8164 22.4923 66.1544 22.1741C65.4924 21.8558 64.7285 21.6967 63.8629 21.6967C62.6025 21.6967 61.4759 21.9767 60.4829 22.5369C59.8018 22.9123 59.2735 23.4434 58.8979 24.1302V37.7373H55.4606V19.0232Z" fill="#2E3D59"/>
<path fill-rule="evenodd" clip-rule="evenodd" d="M97.9284 38.1192C95.726 38.1192 93.8736 37.6673 92.3714 36.7634C90.8692 35.8595 89.7298 34.6629 88.9532 33.1734C88.1894 31.6712 87.8075 30.0225 87.8075 28.2275C87.8075 26.4834 88.1639 24.8857 88.8768 23.4344C89.6025 21.9831 90.6464 20.8246 92.0086 19.9589C93.3835 19.0805 95.0385 18.6413 96.9736 18.6413C98.5267 18.6413 99.908 18.9532 101.117 19.577C102.34 20.1881 103.294 21.0856 103.982 22.2695C104.682 23.4408 105.032 24.8666 105.032 26.5471C105.032 26.8144 105.019 27.1072 104.994 27.4255C104.981 27.731 104.943 28.0493 104.879 28.3803H91.3211C91.4866 30.1116 91.9004 31.4611 92.5624 32.4286C93.2244 33.3962 94.0582 34.0772 95.064 34.4719C96.0697 34.8666 97.1645 35.0639 98.3485 35.0639C99.2142 35.0639 100.118 34.9748 101.06 34.7965C102.002 34.6183 102.893 34.3382 103.734 33.9563L104.192 36.6679C103.466 36.9862 102.581 37.3108 101.538 37.6418C100.494 37.9601 99.2905 38.1192 97.9284 38.1192ZM91.6267 26.0124H101.48C101.48 25.1339 101.315 24.3701 100.984 23.7208C100.653 23.0716 100.15 22.5751 99.4751 22.2314C98.8004 21.8749 97.9411 21.6967 96.8972 21.6967C95.3695 21.6967 94.1919 22.0786 93.3644 22.8424C92.5496 23.5935 91.9704 24.6502 91.6267 26.0124Z" fill="#2E3D59"/>
<path fill-rule="evenodd" clip-rule="evenodd" d="M115.906 38.1192C114.315 38.1192 112.876 37.6864 111.59 36.8207C110.305 35.955 109.28 34.7902 108.516 33.3261C107.765 31.8621 107.389 30.2262 107.389 28.4185C107.389 26.6998 107.733 25.0958 108.42 23.6063C109.121 22.1168 110.107 20.9201 111.38 20.0162C112.653 19.0996 114.162 18.6413 115.906 18.6413C117.154 18.6413 118.357 18.915 119.515 19.4624C120.329 19.8341 121.036 20.3812 121.635 21.1036V9.09329H125.072V37.7373H122.017L121.642 35.4454C121.132 36.1663 120.474 36.7457 119.668 37.1835C118.497 37.8073 117.243 38.1192 115.906 38.1192ZM116.517 35.0639C117.383 35.0639 118.236 34.8411 119.076 34.3955C119.929 33.9499 120.629 33.2434 121.177 32.2759C121.737 31.2956 122.017 30.0098 122.017 28.4185C122.017 26.9417 121.737 25.7068 121.177 24.7138C120.629 23.7081 119.929 22.957 119.076 22.4605C118.236 21.9513 117.383 21.6967 116.517 21.6967C115.346 21.6967 114.34 21.9895 113.5 22.5751C112.66 23.1607 112.017 23.9627 111.571 24.9812C111.126 25.9869 110.903 27.1327 110.903 28.4185C110.903 29.6279 111.126 30.7354 111.571 31.7412C112.017 32.7469 112.66 33.5553 113.5 34.1664C114.34 34.7647 115.346 35.0639 116.517 35.0639Z" fill="#2E3D59"/>
<path d="M129.681 19.0232H133.119V37.7373H129.681V19.0232Z" fill="#2E3D59"/>
<path fill-rule="evenodd" clip-rule="evenodd" d="M129.681 14.8221V11.0029H133.119V14.8221H129.681ZM131.447 13.3916C131.74 13.3916 131.977 13.1541 131.977 12.8611C131.977 12.5682 131.74 12.3307 131.447 12.3307C131.154 12.3307 130.916 12.5682 130.916 12.8611C130.916 13.1541 131.154 13.3916 131.447 13.3916Z" fill="#2E3D59"/>
<path d="M146.368 38.1192C144.255 38.1192 142.479 37.6928 141.04 36.8398C139.614 35.9741 138.532 34.8156 137.794 33.3643C137.068 31.9003 136.706 30.2771 136.706 28.4948C136.706 26.6362 137.056 24.9621 137.756 23.4726C138.469 21.9831 139.557 20.8055 141.021 19.9398C142.485 19.0741 144.357 18.6413 146.635 18.6413C147.616 18.6413 148.539 18.7431 149.404 18.9468C150.283 19.1378 151.066 19.4051 151.753 19.7489L151.218 22.766C150.518 22.435 149.774 22.1741 148.984 21.9831C148.208 21.7921 147.399 21.6967 146.559 21.6967C144.497 21.6967 142.924 22.2823 141.842 23.4535C140.76 24.6247 140.219 26.2542 140.219 28.3421C140.219 30.379 140.735 32.0149 141.766 33.2498C142.797 34.4846 144.369 35.1021 146.483 35.1021C147.348 35.1021 148.176 35.0002 148.965 34.7965C149.767 34.5928 150.531 34.3128 151.257 33.9563L151.715 36.7061C151.206 37.0626 150.461 37.3872 149.481 37.68C148.5 37.9728 147.463 38.1192 146.368 38.1192Z" fill="#2E3D59"/>
<path fill-rule="evenodd" clip-rule="evenodd" d="M163.832 38.1192C161.63 38.1192 159.777 37.6673 158.275 36.7634C156.773 35.8595 155.633 34.6629 154.857 33.1734C154.093 31.6712 153.711 30.0225 153.711 28.2275C153.711 26.4834 154.068 24.8857 154.78 23.4344C155.506 21.9831 156.55 20.8246 157.912 19.9589C159.287 19.0805 160.942 18.6413 162.877 18.6413C164.43 18.6413 165.812 18.9532 167.021 19.577C168.243 20.1881 169.198 21.0856 169.885 22.2695C170.586 23.4408 170.936 24.8666 170.936 26.5471C170.936 26.8144 170.923 27.1072 170.898 27.4255C170.885 27.731 170.847 28.0493 170.783 28.3803H157.225C157.39 30.1116 157.804 31.4611 158.466 32.4286C159.128 33.3962 159.962 34.0772 160.968 34.4719C161.973 34.8666 163.068 35.0639 164.252 35.0639C165.118 35.0639 166.022 34.9748 166.964 34.7965C167.906 34.6183 168.797 34.3382 169.637 33.9563L170.095 36.6679C169.37 36.9862 168.485 37.3108 167.441 37.6418C166.397 37.9601 165.194 38.1192 163.832 38.1192ZM157.53 26.0124H167.384C167.384 25.1339 167.218 24.3701 166.887 23.7208C166.556 23.0716 166.053 22.5751 165.379 22.2314C164.704 21.8749 163.845 21.6967 162.801 21.6967C161.273 21.6967 160.096 22.0786 159.268 22.8424C158.453 23.5935 157.874 24.6502 157.53 26.0124Z" fill="#2E3D59"/>
<path fill-rule="evenodd" clip-rule="evenodd" d="M48.5724 17.5804H50.6942V19.7022H48.5724V17.5804ZM50.4293 19.2147C50.4293 19.0907 50.3299 18.9902 50.2072 18.9902C50.0846 18.9902 49.9852 19.0907 49.9852 19.2147C49.9852 19.3386 50.0846 19.4391 50.2072 19.4391C50.3299 19.4391 50.4293 19.3386 50.4293 19.2147ZM49.0591 17.8437C49.1817 17.8437 49.2811 17.9442 49.2811 18.0681C49.2811 18.1921 49.1817 18.2926 49.0591 18.2926C48.9364 18.2926 48.837 18.1921 48.837 18.0681C48.837 17.9442 48.9364 17.8437 49.0591 17.8437Z" fill="#2E3D59"/>
<path d="M46.9308 27.1533H49.0592V29.31H46.9308V27.1533Z" fill="#3D5B95"/>
<path d="M55.4746 25.585H57.6029V27.7418H55.4746V25.585Z" fill="#3D5B95"/>
<path d="M81.4516 25.6936H82.9522V27.2142H81.4516V25.6936Z" fill="#3D5B95"/>
<path d="M101.165 26.8198H102.665V28.3404H101.165V26.8198Z" fill="#3D5B95"/>
<path d="M121.635 13.7537H123.135V15.2743H121.635V13.7537Z" fill="#3D5B95"/>
<path d="M123.54 34.1429H125.041V35.6635H123.54V34.1429Z" fill="#3D5B95"/>
<path d="M131.606 30.4653H133.107V31.9859H131.606V30.4653Z" fill="#3D5B95"/>
<path d="M129.694 21.2575H131.195V22.7781H129.694V21.2575Z" fill="#3D5B95"/>
<path d="M82.9777 36.2026H84.4784V37.7232H82.9777V36.2026Z" fill="#3D5B95"/>
<path d="M111.339 34.9032H112.84V36.4238H111.339V34.9032Z" fill="#3D5B95"/>
<path d="M68.6021 32.7325H69.419V33.5603H68.6021V32.7325Z" fill="#3D5B95"/>
<path d="M93.9005 35.3743H94.7174V36.2021H93.9005V35.3743Z" fill="#3D5B95"/>
<path d="M71.8826 21.7924H72.6995V22.6202H71.8826V21.7924Z" fill="#3D5B95"/>
<path d="M94.7179 19.2881H95.5348V20.1159H94.7179V19.2881Z" fill="#3D5B95"/>
<path d="M38.3686 28.7705H39.8591V30.2809H38.3686V28.7705Z" fill="#3D5B95"/>
<path d="M38.7548 20.3399H39.8184V21.4177H38.7548V20.3399Z" fill="#3D5B95"/>
<path d="M36.8537 32.3985H38.982V34.5552H36.8537V32.3985Z" fill="#15606A"/>
<path d="M47.139 32.4204H48.5724V33.8729H47.139V32.4204Z" fill="#15606A"/>
<path d="M65.0347 20.3399H66.4681V21.7924H65.0347V20.3399Z" fill="#15606A"/>
<path d="M69.4195 30.9679H70.8529V32.4204H69.4195V30.9679Z" fill="#15606A"/>
<path d="M56.8181 29.5155H58.2515V30.9679H56.8181V29.5155Z" fill="#15606A"/>
<path d="M57.6083 36.4453H58.8946V37.7317H57.6083V36.4453Z" fill="#15606A"/>
<path d="M69.4195 24.8588H70.8529V26.3113H69.4195V24.8588Z" fill="#15606A"/>
<path d="M83.5523 28.3404H84.4778V29.2782H83.5523V28.3404Z" fill="#15606A"/>
<path d="M81.0714 21.0661H82.5048V22.5186H81.0714V21.0661Z" fill="#15606A"/>
<path d="M91.2564 22.2066H92.6898V23.659H91.2564V22.2066Z" fill="#15606A"/>
<path d="M107.478 27.1968H108.911V28.6493H107.478V27.1968Z" fill="#15606A"/>
<path d="M102.665 36.2026H103.39V36.9375H102.665V36.2026Z" fill="#15606A"/>
<path d="M88.1902 29.7444H88.9154V30.4793H88.1902V29.7444Z" fill="#15606A"/>
<path d="M121.635 21.4712H122.36V22.2061H121.635V21.4712Z" fill="#15606A"/>
<path d="M132.381 37.0005H133.106V37.7354H132.381V37.0005Z" fill="#15606A"/>
<path d="M132.381 23.2386H133.106V23.9735H132.381V23.2386Z" fill="#15606A"/>
<path d="M50.4058 35.3671H51.5199V36.496H50.4058V35.3671Z" fill="#15606A"/>
<path d="M46.6389 21.8865H47.6117V22.8722H46.6389V21.8865Z" fill="#15606A"/>
<path d="M47.6728 23.0242H48.837V24.1884H47.6728V23.0242Z" fill="#7B7B7C"/>
<path d="M81.788 30.9679H82.9522V32.1321H81.788V30.9679Z" fill="#7B7B7C"/>
<path d="M103.317 23.2604H104.481V24.4245H103.317V23.2604Z" fill="#7B7B7C"/>
<path d="M77.4141 19.902H78.5783V21.0662H77.4141V19.902Z" fill="#7B7B7C"/>
<path d="M92.1078 33.5608H93.2719V34.725H92.1078V33.5608Z" fill="#7B7B7C"/>
<path d="M166.968 26.7016H168.469V28.2222H166.968V26.7016Z" fill="#3D5B95"/>
<path d="M159.704 35.2561H160.521V36.0839H159.704V35.2561Z" fill="#3D5B95"/>
<path d="M160.521 19.1699H161.338V19.9977H160.521V19.1699Z" fill="#3D5B95"/>
<path d="M157.06 22.0883H158.493V23.5408H157.06V22.0883Z" fill="#15606A"/>
<path d="M168.469 36.0844H169.194V36.8193H168.469V36.0844Z" fill="#15606A"/>
<path d="M153.994 29.6263H154.719V30.3612H153.994V29.6263Z" fill="#15606A"/>
<path d="M169.12 23.1422H170.284V24.3064H169.12V23.1422Z" fill="#7B7B7C"/>
<path d="M157.911 33.4426H159.075V34.6068H157.911V33.4426Z" fill="#7B7B7C"/>
<path d="M142.798 35.437H143.615V36.2647H142.798V35.437Z" fill="#3D5B95"/>
<path d="M150.318 36.2652H151.135V37.093H150.318V36.2652Z" fill="#3D5B95"/>
<path d="M143.615 19.3507H144.432V20.1785H143.615V19.3507Z" fill="#3D5B95"/>
<path d="M140.154 22.2692H141.587V23.7216H140.154V22.2692Z" fill="#15606A"/>
<path d="M149.955 21.4712H150.68V22.2061H149.955V21.4712Z" fill="#15606A"/>
<path d="M137.087 29.8071H137.813V30.542H137.087V29.8071Z" fill="#15606A"/>
<path d="M141.005 33.6893H142.169V34.8535H141.005V33.6893Z" fill="#7B7B7C"/>
<path d="M147.789 18.7406H148.23V19.1808H147.789V18.7406Z" fill="#7B7B7C"/>
<path d="M121.998 27.9231H123.162V29.0873H121.998V27.9231Z" fill="#7B7B7C"/>
<path d="M114.273 20.3399H115.437V21.5041H114.273V20.3399Z" fill="#7B7B7C"/>
<path d="M129.694 34.4993H130.858V35.6635H129.694V34.4993Z" fill="#7B7B7C"/>
<path d="M61.9122 19.7022H63.0764V20.8664H61.9122V19.7022Z" fill="#7B7B7C"/>
<path d="M56.65 35.4326H57.1487V35.9312H56.65V35.4326Z" fill="#7B7B7C"/>
<path d="M113.443 36.5702H113.942V37.0689H113.443V36.5702Z" fill="#7B7B7C"/>
<path d="M41.5246 19.7022H42.0233V20.2009H41.5246V19.7022Z" fill="#7B7B7C"/>
<path d="M57.0873 22.2066H58.2514V23.3707H57.0873V22.2066Z" fill="#7B7B7C"/>
<path d="M69.6887 35.6205H70.8529V36.7847H69.6887V35.6205Z" fill="#7B7B7C"/>
<path d="M43.431 35.9315H43.9238V36.4243H43.431V35.9315Z" fill="#7B7B7C"/>
</svg>
